<svg width="82" height="36" viewBox="0 0 82 36" fill="none" xmlns="http://www.w3.org/2000/svg">
<path d="M0.853516 17V2.80078H3.74414V14.5879H10.9316V17H0.853516ZM12.3477 11.668C12.3477 10.7565 12.5723 9.87435 13.0215 9.02148C13.4707 8.16862 14.1055 7.51758 14.9258 7.06836C15.7526 6.61914 16.6738 6.39453 17.6895 6.39453C19.2585 6.39453 20.5443 6.9056 21.5469 7.92773C22.5495 8.94336 23.0508 10.2292 23.0508 11.7852C23.0508 13.3542 22.543 14.6562 21.5273 15.6914C20.5182 16.7201 19.2454 17.2344 17.709 17.2344C16.7585 17.2344 15.8503 17.0195 14.9844 16.5898C14.125 16.1602 13.4707 15.5319 13.0215 14.7051C12.5723 13.8717 12.3477 12.8594 12.3477 11.668ZM15.1602 11.8145C15.1602 12.8431 15.4043 13.6309 15.8926 14.1777C16.3809 14.7246 16.9831 14.998 17.6992 14.998C18.4154 14.998 19.0143 14.7246 19.4961 14.1777C19.9844 13.6309 20.2285 12.8366 20.2285 11.7949C20.2285 10.7793 19.9844 9.99805 19.4961 9.45117C19.0143 8.9043 18.4154 8.63086 17.6992 8.63086C16.9831 8.63086 16.3809 8.9043 15.8926 9.45117C15.4043 9.99805 15.1602 10.7858 15.1602 11.8145ZM24.9551 17.6836L28.0898 18.0645C28.1419 18.429 28.2624 18.6797 28.4512 18.8164C28.7116 19.0117 29.1217 19.1094 29.6816 19.1094C30.3978 19.1094 30.9349 19.002 31.293 18.7871C31.5339 18.6439 31.7161 18.4128 31.8398 18.0938C31.9245 17.8659 31.9668 17.446 31.9668 16.834V15.3203C31.1465 16.4401 30.1113 17 28.8613 17C27.4681 17 26.3646 16.4108 25.5508 15.2324C24.9128 14.3014 24.5938 13.1426 24.5938 11.7559C24.5938 10.0176 25.0104 8.68945 25.8438 7.77148C26.6836 6.85352 27.7253 6.39453 28.9688 6.39453C30.2513 6.39453 31.3092 6.95768 32.1426 8.08398V6.62891H34.7109V15.9355C34.7109 17.1595 34.61 18.0742 34.4082 18.6797C34.2064 19.2852 33.9232 19.7604 33.5586 20.1055C33.194 20.4505 32.7057 20.7207 32.0938 20.916C31.4883 21.1113 30.7201 21.209 29.7891 21.209C28.0312 21.209 26.7845 20.9062 26.0488 20.3008C25.3132 19.7018 24.9453 18.9401 24.9453 18.0156C24.9453 17.9245 24.9486 17.8138 24.9551 17.6836ZM27.4062 11.5996C27.4062 12.6999 27.6178 13.5072 28.041 14.0215C28.4707 14.5293 28.998 14.7832 29.623 14.7832C30.2936 14.7832 30.86 14.5228 31.3223 14.002C31.7845 13.4746 32.0156 12.6966 32.0156 11.668C32.0156 10.5938 31.7943 9.79622 31.3516 9.27539C30.9089 8.75456 30.349 8.49414 29.6719 8.49414C29.0143 8.49414 28.4707 8.7513 28.041 9.26562C27.6178 9.77344 27.4062 10.5514 27.4062 11.5996Z" fill="#275292"/>
<path d="M38.64 17.072C37.712 17.072 37.248 16.808 37.248 16.28V0.92C37.248 0.392 37.712 0.128 38.64 0.128H39.648C40.56 0.128 41.016 0.392 41.016 0.92V16.28C41.016 16.808 40.56 17.072 39.648 17.072H38.64ZM46.1693 17.192C45.3373 17.192 44.5613 17.048 43.8413 16.76C43.1373 16.472 42.7853 16.096 42.7853 15.632C42.7853 15.296 42.9373 14.88 43.2413 14.384C43.5613 13.888 43.8413 13.64 44.0813 13.64C44.1453 13.64 44.2813 13.704 44.4893 13.832C44.7133 13.96 44.9213 14.072 45.1133 14.168C45.3053 14.248 45.5293 14.288 45.7853 14.288C46.1693 14.288 46.4653 14.208 46.6733 14.048C46.8813 13.888 46.9853 13.672 46.9853 13.4C46.9853 13.08 46.8813 12.824 46.6733 12.632C46.4653 12.44 46.1373 12.224 45.6893 11.984L45.2093 11.696C44.5213 11.28 43.9693 10.824 43.5533 10.328C43.1533 9.816 42.9533 9.08 42.9533 8.12C42.9533 6.92 43.3133 5.976 44.0333 5.288C44.7693 4.6 45.7293 4.256 46.9133 4.256C47.6493 4.256 48.3533 4.376 49.0253 4.616C49.6973 4.84 50.0333 5.184 50.0333 5.648C50.0333 5.968 49.9133 6.376 49.6733 6.872C49.4493 7.352 49.2413 7.592 49.0493 7.592C49.0013 7.592 48.8173 7.52 48.4973 7.376C48.1773 7.232 47.8493 7.16 47.5133 7.16C46.7133 7.16 46.3133 7.432 46.3133 7.976C46.3133 8.248 46.4093 8.472 46.6013 8.648C46.7933 8.808 47.1133 9.016 47.5613 9.272C47.7693 9.368 48.0253 9.512 48.3293 9.704C48.9533 10.104 49.4413 10.56 49.7933 11.072C50.1613 11.584 50.3453 12.272 50.3453 13.136C50.3453 14.336 49.9693 15.312 49.2173 16.064C48.4813 16.816 47.4653 17.192 46.1693 17.192ZM54.6302 17.192C53.7982 17.192 53.0222 17.048 52.3022 16.76C51.5982 16.472 51.2462 16.096 51.2462 15.632C51.2462 15.296 51.3982 14.88 51.7022 14.384C52.0222 13.888 52.3022 13.64 52.5422 13.64C52.6062 13.64 52.7422 13.704 52.9502 13.832C53.1742 13.96 53.3822 14.072 53.5742 14.168C53.7662 14.248 53.9902 14.288 54.2462 14.288C54.6302 14.288 54.9262 14.208 55.1342 14.048C55.3422 13.888 55.4462 13.672 55.4462 13.4C55.4462 13.08 55.3422 12.824 55.1342 12.632C54.9262 12.44 54.5982 12.224 54.1502 11.984L53.6702 11.696C52.9822 11.28 52.4302 10.824 52.0142 10.328C51.6142 9.816 51.4142 9.08 51.4142 8.12C51.4142 6.92 51.7742 5.976 52.4942 5.288C53.2302 4.6 54.1902 4.256 55.3742 4.256C56.1102 4.256 56.8142 4.376 57.4862 4.616C58.1582 4.84 58.4942 5.184 58.4942 5.648C58.4942 5.968 58.3742 6.376 58.1342 6.872C57.9102 7.352 57.7022 7.592 57.5102 7.592C57.4622 7.592 57.2782 7.52 56.9582 7.376C56.6382 7.232 56.3102 7.16 55.9742 7.16C55.1742 7.16 54.7742 7.432 54.7742 7.976C54.7742 8.248 54.8702 8.472 55.0622 8.648C55.2542 8.808 55.5742 9.016 56.0222 9.272C56.2302 9.368 56.4862 9.512 56.7902 9.704C57.4142 10.104 57.9022 10.56 58.2542 11.072C58.6222 11.584 58.8062 12.272 58.8062 13.136C58.8062 14.336 58.4302 15.312 57.6782 16.064C56.9422 16.816 55.9262 17.192 54.6302 17.192ZM63.1151 17.216C62.1871 17.216 61.4831 16.936 61.0031 16.376C60.5391 15.8 60.3071 14.968 60.3071 13.88V5.168C60.3071 4.656 60.7711 4.4 61.6991 4.4H62.5151C63.4431 4.4 63.9071 4.656 63.9071 5.168V13.088C63.9071 13.488 63.9711 13.792 64.0991 14C64.2271 14.192 64.4591 14.288 64.7951 14.288C65.2271 14.288 65.6271 14.032 65.9951 13.52V5.168C65.9951 4.912 66.1071 4.72 66.3311 4.592C66.5551 4.464 66.8991 4.4 67.3631 4.4H68.2031C69.1151 4.4 69.5711 4.656 69.5711 5.168V12.824C69.5711 13.96 69.6111 14.776 69.6911 15.272C69.7711 15.768 69.8111 16.072 69.8111 16.184C69.8111 16.472 69.4751 16.68 68.8031 16.808C68.1311 16.936 67.5471 17 67.0511 17C66.7471 17 66.5471 16.912 66.4511 16.736C66.3551 16.56 66.2831 16.336 66.2351 16.064C66.2031 15.776 66.1711 15.552 66.1391 15.392C65.7871 15.92 65.3551 16.36 64.8431 16.712C64.3471 17.048 63.7711 17.216 63.1151 17.216ZM77.0213 17.192C75.1653 17.192 73.7973 16.656 72.9173 15.584C72.0373 14.496 71.5973 12.904 71.5973 10.808C71.5973 8.44 72.0293 6.76 72.8933 5.768C73.7733 4.76 75.0053 4.256 76.5893 4.256C78.1573 4.256 79.2933 4.808 79.9973 5.912C80.7013 7.016 81.0533 8.616 81.0533 10.712C81.0533 10.904 80.8853 11.192 80.5493 11.576C80.2293 11.944 79.9893 12.128 79.8293 12.128H75.2693C75.3013 12.944 75.4853 13.528 75.8213 13.88C76.1573 14.216 76.6133 14.384 77.1893 14.384C77.5413 14.384 77.8613 14.336 78.1493 14.24C78.4373 14.144 78.7173 14.032 78.9893 13.904C79.2613 13.76 79.4293 13.688 79.4933 13.688C79.6533 13.688 79.8293 13.808 80.0213 14.048C80.2293 14.272 80.3973 14.536 80.5253 14.84C80.6693 15.128 80.7413 15.352 80.7413 15.512C80.7413 15.88 80.5253 16.192 80.0933 16.448C79.6613 16.688 79.1493 16.872 78.5573 17C77.9813 17.128 77.4693 17.192 77.0213 17.192ZM77.8133 9.992C77.8133 8.856 77.7173 8.048 77.5253 7.568C77.3333 7.072 77.0133 6.824 76.5653 6.824C76.1333 6.824 75.7973 7.056 75.5573 7.52C75.3333 7.984 75.1893 8.808 75.1253 9.992H77.8133Z" fill="#BE2A2A"/>
<path d="M9.60563 35.032C8.96563 35.032 8.64563 34.8613 8.64563 34.52V24.44C8.64563 24.216 8.69363 24.056 8.78963 23.96C8.89629 23.8533 9.06163 23.8 9.28563 23.8H12.0536C12.8963 23.8 13.6376 24.0453 14.2776 24.536C14.9283 25.016 15.2536 25.9387 15.2536 27.304C15.2536 28.2427 15.067 28.9733 14.6936 29.496C14.3203 30.008 13.9043 30.3547 13.4456 30.536C12.987 30.7173 12.5763 30.808 12.2136 30.808H11.1096V34.52C11.1096 34.8613 10.7896 35.032 10.1496 35.032H9.60563ZM11.9416 28.744C12.187 28.744 12.4003 28.6373 12.5816 28.424C12.763 28.2107 12.8536 27.8373 12.8536 27.304C12.8536 26.7813 12.763 26.4187 12.5816 26.216C12.4003 26.0027 12.187 25.896 11.9416 25.896H11.0936V28.744H11.9416ZM19.4881 35.128C18.2508 35.128 17.3388 34.7707 16.7521 34.056C16.1655 33.3307 15.8721 32.2693 15.8721 30.872C15.8721 29.2933 16.1601 28.1733 16.7361 27.512C17.3228 26.84 18.1441 26.504 19.2001 26.504C20.2455 26.504 21.0028 26.872 21.4721 27.608C21.9415 28.344 22.1761 29.4107 22.1761 30.808C22.1761 30.936 22.0641 31.128 21.8401 31.384C21.6268 31.6293 21.4668 31.752 21.3601 31.752H18.3201C18.3415 32.296 18.4641 32.6853 18.6881 32.92C18.9121 33.144 19.2161 33.256 19.6001 33.256C19.8348 33.256 20.0481 33.224 20.2401 33.16C20.4321 33.096 20.6188 33.0213 20.8001 32.936C20.9815 32.84 21.0935 32.792 21.1361 32.792C21.2428 32.792 21.3601 32.872 21.4881 33.032C21.6268 33.1813 21.7388 33.3573 21.8241 33.56C21.9201 33.752 21.9681 33.9013 21.9681 34.008C21.9681 34.2533 21.8241 34.4613 21.5361 34.632C21.2481 34.792 20.9068 34.9147 20.5121 35C20.1281 35.0853 19.7868 35.128 19.4881 35.128ZM20.0161 30.328C20.0161 29.5707 19.9521 29.032 19.8241 28.712C19.6961 28.3813 19.4828 28.216 19.1841 28.216C18.8961 28.216 18.6721 28.3707 18.5121 28.68C18.3628 28.9893 18.2668 29.5387 18.2241 30.328H20.0161ZM25.4578 35.128C24.0818 35.128 23.3938 34.3173 23.3938 32.696V23.448C23.3938 23.1067 23.7138 22.936 24.3538 22.936H24.8018C25.4418 22.936 25.7618 23.1067 25.7618 23.448V32.728C25.7618 32.9093 25.7884 33.0427 25.8418 33.128C25.9058 33.2133 26.0071 33.256 26.1458 33.256C26.1884 33.256 26.2471 33.2453 26.3218 33.224C26.3964 33.2027 26.4551 33.192 26.4978 33.192C26.6364 33.192 26.7484 33.336 26.8338 33.624C26.9191 33.9013 26.9618 34.152 26.9618 34.376C26.9618 34.632 26.8018 34.824 26.4818 34.952C26.1724 35.0693 25.8311 35.128 25.4578 35.128ZM29.7063 35.128C29.0023 35.128 28.4583 34.904 28.0743 34.456C27.7009 34.008 27.5143 33.3947 27.5143 32.616C27.5143 30.6213 28.7569 29.6293 31.2423 29.64V29.384C31.2423 29.0427 31.1623 28.792 31.0023 28.632C30.8529 28.4613 30.6076 28.376 30.2663 28.376C30.0316 28.376 29.8236 28.408 29.6423 28.472C29.4609 28.5253 29.2583 28.6053 29.0343 28.712C28.8849 28.7973 28.7729 28.84 28.6983 28.84C28.5916 28.84 28.4743 28.76 28.3463 28.6C28.2183 28.44 28.1063 28.2587 28.0103 28.056C27.9143 27.8427 27.8663 27.6773 27.8663 27.56C27.8663 27.3787 27.9889 27.208 28.2343 27.048C28.4903 26.8773 28.8156 26.744 29.2103 26.648C29.6156 26.552 30.0263 26.504 30.4423 26.504C31.5516 26.504 32.3569 26.7493 32.8583 27.24C33.3596 27.7307 33.6103 28.408 33.6103 29.272V32.184C33.6103 32.6747 33.6209 33.048 33.6423 33.304C33.6743 33.56 33.7116 33.8427 33.7543 34.152C33.7863 34.2907 33.8023 34.408 33.8023 34.504C33.8023 34.6747 33.5836 34.8027 33.1463 34.888C32.7196 34.9733 32.3409 35.016 32.0103 35.016C31.8396 35.016 31.7169 34.952 31.6423 34.824C31.5783 34.696 31.5089 34.488 31.4343 34.2C31.2956 34.4347 31.0769 34.648 30.7783 34.84C30.4796 35.032 30.1223 35.128 29.7063 35.128ZM30.4263 33.416C30.5969 33.416 30.7516 33.368 30.8903 33.272C31.0396 33.176 31.1569 33.048 31.2423 32.888V31.016C30.1756 31.016 29.6423 31.4907 29.6423 32.44C29.6423 32.7387 29.7116 32.9787 29.8503 33.16C29.9889 33.3307 30.1809 33.416 30.4263 33.416ZM39.3294 35.128C38.9667 35.128 38.6254 35.0267 38.3054 34.824C37.9854 34.6107 37.74 34.3387 37.5694 34.008C37.516 34.264 37.4574 34.4667 37.3934 34.616C37.3294 34.7867 37.2387 34.8987 37.1214 34.952C37.004 35.0053 36.8174 35.032 36.5614 35.032H36.3694C35.7294 35.032 35.4094 34.8613 35.4094 34.52V23.448C35.4094 23.1067 35.7294 22.936 36.3694 22.936H36.8174C37.4574 22.936 37.7774 23.1067 37.7774 23.448V26.984C38.14 26.664 38.5827 26.504 39.1054 26.504C39.948 26.504 40.5987 26.8773 41.0574 27.624C41.5267 28.3707 41.7614 29.4427 41.7614 30.84C41.7614 32.1947 41.5374 33.2507 41.0894 34.008C40.652 34.7547 40.0654 35.128 39.3294 35.128ZM38.5454 33.192C38.8334 33.192 39.0414 33.016 39.1694 32.664C39.2974 32.3013 39.3614 31.688 39.3614 30.824C39.3614 29.896 39.2867 29.256 39.1374 28.904C38.9987 28.552 38.7694 28.376 38.4494 28.376C38.204 28.376 37.98 28.456 37.7774 28.616V32.648C38.0014 33.0107 38.2574 33.192 38.5454 33.192ZM44.9361 35.144C44.3175 35.144 43.8481 34.9573 43.5281 34.584C43.2188 34.2 43.0641 33.6453 43.0641 32.92V27.112C43.0641 26.7707 43.3735 26.6 43.9921 26.6H44.5361C45.1548 26.6 45.4641 26.7707 45.4641 27.112V32.392C45.4641 32.6587 45.5068 32.8613 45.5921 33C45.6775 33.128 45.8321 33.192 46.0561 33.192C46.3441 33.192 46.6108 33.0213 46.8561 32.68V27.112C46.8561 26.9413 46.9308 26.8133 47.0801 26.728C47.2295 26.6427 47.4588 26.6 47.7681 26.6H48.3281C48.9361 26.6 49.2401 26.7707 49.2401 27.112V32.216C49.2401 32.9733 49.2668 33.5173 49.3201 33.848C49.3735 34.1787 49.4001 34.3813 49.4001 34.456C49.4001 34.648 49.1761 34.7867 48.7281 34.872C48.2801 34.9573 47.8908 35 47.5601 35C47.3575 35 47.2241 34.9413 47.1601 34.824C47.0961 34.7067 47.0481 34.5573 47.0161 34.376C46.9948 34.184 46.9735 34.0347 46.9521 33.928C46.7175 34.28 46.4295 34.5733 46.0881 34.808C45.7575 35.032 45.3735 35.144 44.9361 35.144ZM51.7909 35.032C51.1722 35.032 50.8629 34.8613 50.8629 34.52V23.448C50.8629 23.1067 51.1722 22.936 51.7909 22.936H52.3349C52.9535 22.936 53.2629 23.1067 53.2629 23.448V27.592C53.4975 27.272 53.7802 27.0107 54.1109 26.808C54.4522 26.6053 54.8362 26.504 55.2629 26.504C55.8495 26.504 56.2975 26.696 56.6069 27.08C56.9162 27.4533 57.0709 28.0027 57.0709 28.728V34.52C57.0709 34.8613 56.7615 35.032 56.1429 35.032H55.5989C54.9802 35.032 54.6709 34.8613 54.6709 34.52V29.272C54.6709 28.9947 54.6229 28.792 54.5269 28.664C54.4309 28.5253 54.2709 28.456 54.0469 28.456C53.7482 28.456 53.4869 28.6267 53.2629 28.968V34.52C53.2629 34.8613 52.9535 35.032 52.3349 35.032H51.7909ZM60.6125 35.128C59.9085 35.128 59.3645 34.904 58.9805 34.456C58.6072 34.008 58.4205 33.3947 58.4205 32.616C58.4205 30.6213 59.6632 29.6293 62.1485 29.64V29.384C62.1485 29.0427 62.0685 28.792 61.9085 28.632C61.7592 28.4613 61.5138 28.376 61.1725 28.376C60.9378 28.376 60.7298 28.408 60.5485 28.472C60.3672 28.5253 60.1645 28.6053 59.9405 28.712C59.7912 28.7973 59.6792 28.84 59.6045 28.84C59.4978 28.84 59.3805 28.76 59.2525 28.6C59.1245 28.44 59.0125 28.2587 58.9165 28.056C58.8205 27.8427 58.7725 27.6773 58.7725 27.56C58.7725 27.3787 58.8952 27.208 59.1405 27.048C59.3965 26.8773 59.7218 26.744 60.1165 26.648C60.5218 26.552 60.9325 26.504 61.3485 26.504C62.4578 26.504 63.2632 26.7493 63.7645 27.24C64.2658 27.7307 64.5165 28.408 64.5165 29.272V32.184C64.5165 32.6747 64.5272 33.048 64.5485 33.304C64.5805 33.56 64.6178 33.8427 64.6605 34.152C64.6925 34.2907 64.7085 34.408 64.7085 34.504C64.7085 34.6747 64.4898 34.8027 64.0525 34.888C63.6258 34.9733 63.2472 35.016 62.9165 35.016C62.7458 35.016 62.6232 34.952 62.5485 34.824C62.4845 34.696 62.4152 34.488 62.3405 34.2C62.2018 34.4347 61.9832 34.648 61.6845 34.84C61.3858 35.032 61.0285 35.128 60.6125 35.128ZM61.3325 33.416C61.5032 33.416 61.6578 33.368 61.7965 33.272C61.9458 33.176 62.0632 33.048 62.1485 32.888V31.016C61.0818 31.016 60.5485 31.4907 60.5485 32.44C60.5485 32.7387 60.6178 32.9787 60.7565 33.16C60.8952 33.3307 61.0872 33.416 61.3325 33.416ZM67.2276 35.032C66.6196 35.032 66.3156 34.8613 66.3156 34.52V29.416C66.3156 28.6587 66.289 28.12 66.2356 27.8C66.1823 27.48 66.1556 27.2827 66.1556 27.208C66.1556 27.016 66.3796 26.8773 66.8276 26.792C67.2756 26.696 67.665 26.648 67.9956 26.648C68.1983 26.648 68.3316 26.7067 68.3956 26.824C68.4596 26.9413 68.5023 27.096 68.5236 27.288C68.5556 27.4693 68.5823 27.6133 68.6036 27.72C68.8383 27.368 69.1316 27.08 69.4836 26.856C69.8463 26.6213 70.2516 26.504 70.6996 26.504C71.2863 26.504 71.729 26.696 72.0276 27.08C72.337 27.4533 72.4916 28.0027 72.4916 28.728V34.52C72.4916 34.8613 72.1823 35.032 71.5636 35.032H71.0196C70.401 35.032 70.0916 34.8613 70.0916 34.52V29.272C70.0916 28.9947 70.049 28.792 69.9636 28.664C69.8783 28.5253 69.7236 28.456 69.4996 28.456C69.2116 28.456 68.945 28.6267 68.6996 28.968V34.52C68.6996 34.6907 68.625 34.8187 68.4756 34.904C68.3263 34.9893 68.097 35.032 67.7876 35.032H67.2276Z" fill="white"/>
</svg>
